<?xml version="1.0" encoding="utf-8"?>
<!-- Generator: Adobe Illustrator 26.4.1, SVG Export Plug-In . SVG Version: 6.00 Build 0)  -->
<svg version="1.1" id="Layer_1" xmlns="http://www.w3.org/2000/svg" xmlns:xlink="http://www.w3.org/1999/xlink" x="0px" y="0px"
	 viewBox="0 0 800 183" style="enable-background:new 0 0 800 183;" xml:space="preserve">
<style type="text/css">
	.st0{fill:#7A8972;}
</style>
<g>
	<g>
		<path class="st0" d="M60.6,119.4H17c-11.3,0-17-5-17-14.9V3.5h17c11.3,0,17,5,17,14.9v73.7h37.3v13.7
			C71.3,114.8,67.7,119.4,60.6,119.4z"/>
		<path class="st0" d="M114.9,99l-3.3,8.8c-2.9,7.8-7.7,11.7-14.4,11.7c-6.7,0-11.5-2-14.3-6.1c-2.9-4.1-4.3-7.8-4.3-11
			c0-3.3,0.7-6.5,2.1-9.6l40.6-89.2h11c7.3,0,12.7,3.9,16.2,11.7l35.6,77.5c1.5,3.2,2.2,6.4,2.2,9.7s-1.4,6.9-4.2,11
			c-2.8,4.1-7.6,6.1-14.4,6.1s-11.6-3.9-14.6-11.7L150,99L114.9,99L114.9,99z M139.8,71.5l-7.4-20.1l-7.4,20.1H139.8z"/>
		<path class="st0" d="M210.7,119.4c-11.3,0.1-17-4.9-17-14.9V3.5h71.5v13.7c0,9.1-4.4,13.7-13.2,13.7h-24.2v16.7h34v13.7
			c0,9.2-4.4,13.7-13.2,13.7h-20.8v29.5C227.7,114.4,222,119.3,210.7,119.4z"/>
		<path class="st0" d="M345,70.1l15.5,21.1c4.2,5,6.2,9.5,6,13.5c-0.2,4-2.2,7.7-6.1,10.9c-3.9,3.2-8.1,4.7-12.4,4.6
			c-4.4-0.1-8.8-2.8-13.3-8l-26.9-36.8v29c0,10-5.7,14.9-17,14.9h-17V3.4h17h38.5c9.5,0,17.4,3.6,23.7,10.9s9.4,15.1,9.4,23.5
			C362.4,52.8,356.6,63.6,345,70.1z M307.8,26.8v26.5h9.8c9.6,0,14.4-4.4,14.4-13.2s-4.8-13.2-14.4-13.2L307.8,26.8L307.8,26.8z"/>
		<path class="st0" d="M494.7,60.3c0,17.9-5.8,32.4-17.4,43.5c-11.6,11.1-26.3,16.6-44.2,16.6s-32.5-5.5-44-16.6
			c-11.5-11.1-17.3-25.6-17.3-43.5c0-17.9,5.7-32.4,17.2-43.6C400.5,5.6,415.2,0,433.3,0c18.1,0,32.8,5.6,44.2,16.7
			C488.9,27.9,494.7,42.4,494.7,60.3z M453.9,38.7c-5.2-5.7-12-8.5-20.6-8.5s-15.5,2.8-20.7,8.6c-5.2,5.7-7.8,12.9-7.8,21.6
			s2.6,15.8,7.8,21.4s12.1,8.4,20.7,8.4c8.6,0,15.4-2.8,20.6-8.5c5.2-5.7,7.8-12.8,7.8-21.5C461.7,51.6,459.1,44.4,453.9,38.7z"/>
		<path class="st0" d="M558.6,39.2l23.9-28.7c3.9-4.7,9.2-7,15.8-7h17v101c0,10-5.7,14.9-17,14.9c-11.3,0-17-5-17-14.9V57
			l-22.7,26.6L536,57.2v47.2c0,10-5.7,14.9-17,14.9h-17V3.4h17c6.5,0.1,11.7,2.4,15.6,7L558.6,39.2z"/>
		<path class="st0" d="M623.9,119.4V3.4h71.5v13.7c0,9.1-4.4,13.7-13.2,13.7h-24.2v16.7h34v13.7c0,9.2-4.4,13.7-13.2,13.7h-20.8
			v17.2h37.5v13.7c0,9.1-4.4,13.7-13.2,13.7L623.9,119.4L623.9,119.4z"/>
		<path class="st0" d="M755.5,119.4H704V3.4h51.5c18.9,2.2,32,12.7,39.2,31.4c3.5,8.8,5.3,17.6,5.3,26.6s-1.8,17.8-5.3,26.5
			C787.5,106.7,774.5,117.2,755.5,119.4z M768.5,60.4c-0.1-21.8-8.2-33-24.3-33.6H738v68.7l6.2,0.2C760.4,94,768.5,82.2,768.5,60.4z
			"/>
	</g>
	<g>
		<path class="st0" d="M431.3,160.5c0,7.2-5.2,11.5-13.8,11.5h-9.1v10.7h-3.6v-33.8h12.6C426.1,148.9,431.3,153.3,431.3,160.5z
			 M427.7,160.5c0-5.4-3.6-8.5-10.3-8.5h-9v16.9h9C424.1,168.9,427.7,165.8,427.7,160.5z"/>
		<path class="st0" d="M450.5,157.1v3.3c-0.3,0-0.6,0-0.8,0c-5.3,0-8.6,3.4-8.6,9.4v12.9h-3.4v-25.4h3.3v5
			C442.5,158.9,445.8,157.1,450.5,157.1z"/>
		<path class="st0" d="M478.5,171.1h-21.3c0.4,5.3,4.4,8.8,10,8.8c3.1,0,5.8-1.1,7.8-3.3l1.9,2.2c-2.3,2.7-5.8,4.2-9.8,4.2
			c-7.9,0-13.3-5.4-13.3-12.9c0-7.5,5.3-12.9,12.4-12.9s12.3,5.3,12.3,12.9C478.6,170.3,478.5,170.7,478.5,171.1z M457.3,168.5h18
			c-0.4-5-4.1-8.5-9-8.5C461.3,160.1,457.7,163.6,457.3,168.5z"/>
		<path class="st0" d="M527.5,168v14.7h-3.4v-14.4c0-5.4-2.7-8.1-7.3-8.1c-5.2,0-8.5,3.4-8.5,9.2v13.3h-3.4v-14.4
			c0-5.4-2.7-8.1-7.3-8.1c-5.2,0-8.5,3.4-8.5,9.2v13.3h-3.4v-25.4h3.3v4.6c1.8-3,5.1-4.8,9.3-4.8c4.2,0,7.5,1.8,9,5.4
			c1.8-3.3,5.5-5.4,10.1-5.4C523.4,157.1,527.5,160.7,527.5,168z"/>
		<path class="st0" d="M536.1,149.3c0-1.3,1.1-2.4,2.5-2.4c1.4,0,2.5,1.1,2.5,2.4c0,1.4-1.1,2.5-2.5,2.5
			C537.2,151.8,536.1,150.7,536.1,149.3z M536.8,157.3h3.4v25.4h-3.4V157.3z"/>
		<path class="st0" d="M572.7,157.3v25.4h-3.3v-4.6c-1.8,3.1-5.1,4.9-9.1,4.9c-6.5,0-10.7-3.6-10.7-10.9v-14.7h3.4v14.4
			c0,5.4,2.8,8.2,7.6,8.2c5.3,0,8.6-3.4,8.6-9.2v-13.3L572.7,157.3L572.7,157.3z"/>
		<path class="st0" d="M624.3,168v14.7h-3.4v-14.4c0-5.4-2.7-8.1-7.3-8.1c-5.2,0-8.5,3.4-8.5,9.2v13.3h-3.4v-14.4
			c0-5.4-2.7-8.1-7.3-8.1c-5.2,0-8.5,3.4-8.5,9.2v13.3h-3.4v-25.4h3.3v4.6c1.8-3,5.1-4.8,9.3-4.8c4.2,0,7.5,1.8,9,5.4
			c1.8-3.3,5.5-5.4,10.1-5.4C620.2,157.1,624.3,160.7,624.3,168z"/>
		<path class="st0" d="M657.5,166.8l-6.9,7v8.9H647v-33.8h3.6v20.4l19.9-20.4h4.1l-14.6,15.3l15.6,18.5h-4.2L657.5,166.8z"/>
		<path class="st0" d="M680.6,146.9h3.4v35.8h-3.4V146.9z"/>
		<path class="st0" d="M692.8,149.3c0-1.3,1.1-2.4,2.5-2.4c1.4,0,2.5,1.1,2.5,2.4c0,1.4-1.1,2.5-2.5,2.5
			C693.9,151.8,692.8,150.7,692.8,149.3z M693.6,157.3h3.4v25.4h-3.4V157.3z"/>
		<path class="st0" d="M730,168v14.7h-3.4v-14.4c0-5.4-2.8-8.1-7.6-8.1c-5.5,0-8.9,3.4-8.9,9.2v13.3h-3.4v-25.4h3.3v4.7
			c1.8-3.1,5.3-4.9,9.7-4.9C725.7,157.1,730,160.7,730,168z"/>
		<path class="st0" d="M738.5,149.3c0-1.3,1.1-2.4,2.5-2.4c1.4,0,2.5,1.1,2.5,2.4c0,1.4-1.1,2.5-2.5,2.5
			C739.6,151.8,738.5,150.7,738.5,149.3z M739.3,157.3h3.4v25.4h-3.4V157.3z"/>
		<path class="st0" d="M761.7,170l-6,5.5v7.2h-3.4v-35.8h3.4v24.3l15.2-13.9h4.2l-10.9,10.4l11.9,15h-4.2L761.7,170z"/>
		<path class="st0" d="M800,167v15.7h-3.3v-4c-1.5,2.6-4.5,4.2-8.7,4.2c-5.7,0-9.3-3-9.3-7.4c0-3.9,2.5-7.2,9.8-7.2h8.1v-1.5
			c0-4.3-2.5-6.7-7.2-6.7c-3.3,0-6.4,1.2-8.5,3l-1.5-2.6c2.6-2.2,6.3-3.4,10.3-3.4C796.3,157.1,800,160.4,800,167z M796.6,175.1
			v-4.2h-8c-4.9,0-6.5,1.9-6.5,4.5c0,2.9,2.4,4.8,6.4,4.8C792.4,180.3,795.2,178.4,796.6,175.1z"/>
	</g>
</g>
</svg>
