<?xml version="1.0" encoding="utf-8"?>
<!-- Generator: Adobe Illustrator 26.4.1, SVG Export Plug-In . SVG Version: 6.00 Build 0)  -->
<svg version="1.1" id="Layer_1" xmlns="http://www.w3.org/2000/svg" xmlns:xlink="http://www.w3.org/1999/xlink" x="0px" y="0px"
	 viewBox="0 0 800 535.6" style="enable-background:new 0 0 800 535.6;" xml:space="preserve">
<style type="text/css">
	.st0{fill:#7A8972;}
</style>
<g>
	<g>
		<circle class="st0" cx="774.9" cy="25.1" r="25.1"/>
		<path class="st0" d="M800,159.2c-0.1-9.8-0.6-19.5-1-29.3c-0.1-3.9-0.2-7.9-0.6-11.8c-0.7-5.9-1.5-11.7-2.5-17.5
			c-1.2-7.8-3.3-15.3-8.2-21.8c-4.8-6.4-13.3-9.1-20.6-7.5c-6.9,1.5-12,5.9-15.7,11.7c-3.9,6.2-7.4,12.8-10.5,19.4
			c-2.8,5.9-4.9,12.1-7.1,18.2c-2.1,5.8-4,11.7-6,17.6c-1.7,5.2-3.4,10.4-5.1,15.7c-1.6,4.9-3,9.9-4.6,14.8
			c-1.6,5.3-3.3,10.6-4.9,16c-2,6.9-3.9,13.7-6,20.6c-2,6.9-4.2,13.8-6.2,20.7c-2.1,7.1-4,14.2-6,21.3c-1.7,5.9-3.4,11.8-5.1,17.6
			c-0.9,3-2,5.8-3,8.8c-0.9-0.5-1.2-1-1.3-1.5c-1.9-8.6-4.3-17.1-8.2-25c-4.7-9.6-11-17.4-21.9-20.2c-5.3-1.4-10.7-1.5-15.9-0.2
			c-9.2,2.2-16.6,7.8-23.3,14.1c-10.6,10-19,21.8-27.1,33.8c-3.3,5-6.4,10.1-9.6,15.1c-0.6,0.9-1.2,1.7-2,2.2
			c-1.1,0.1-2.1,0.2-3.2,0.4c-1.1-0.1-2.2-0.2-3.2-0.4c-0.8-0.5-1.5-1.3-2-2.2c-3.2-5-6.3-10.1-9.6-15.1c-8-12-16.5-23.8-27.1-33.8
			c-6.7-6.4-14.1-11.9-23.3-14.1c-5.2-1.3-10.6-1.2-15.9,0.2c-10.9,2.9-17.2,10.6-21.9,20.2c-3.9,8-6.3,16.4-8.2,25
			c-0.1,0.5-0.4,0.9-1.3,1.5c-1-2.9-2.1-5.8-3-8.8c-1.8-5.9-3.5-11.8-5.1-17.6c-0.8-2.9-1.6-5.7-2.4-8.6
			c-15.3-4.1-27.4,2.6-30.4,12.4c1.2,4,2.5,8.1,3.6,12.1c1.1,3.7,2.2,7.4,3.2,11.1c1.1,3.7,2.1,7.4,3.3,11.1
			c1.6,5.2,3.2,10.3,5,15.4c2,5.8,3.9,11.6,6.3,17.2c2.2,5.2,4.5,10.4,7.4,15.2c4.6,7.7,11.4,12.1,20.8,11c6.1-0.7,10.8-4,14-9.4
			c3.1-5.3,4.8-11,5.8-17.1c1.8-11.7,3.4-23.5,5.6-35.2c1.2-6.4,3.4-12.7,5.3-19c0.3-1.1,1.2-2,2-3.3c1.7,1.2,3.3,2.2,4.6,3.5
			c9.2,8.6,16.7,18.6,23.5,29.1c6,9.2,11.6,18.7,17.7,27.9c2.6,3.9,6.6,6.2,11.4,6c4.7-0.2,23.5-0.2,28.1,0c4.8,0.2,8.8-2.1,11.4-6
			c6-9.2,11.6-18.7,17.7-27.9c6.9-10.5,14.4-20.5,23.5-29.1c1.3-1.3,3-2.2,4.7-3.5c0.8,1.3,1.7,2.2,2,3.3c1.9,6.3,4,12.6,5.3,19
			c2.2,11.7,3.8,23.5,5.7,35.2c0.9,6,2.7,11.8,5.8,17.1c3.1,5.4,7.8,8.6,14,9.4c9.4,1.1,16.2-3.3,20.8-11c2.9-4.8,5.2-10,7.4-15.2
			c2.3-5.6,4.3-11.5,6.3-17.2c1.8-5.1,3.4-10.3,5-15.4c1.2-3.7,2.2-7.4,3.3-11c1.1-3.7,2.2-7.4,3.2-11.1c1.6-5.3,3.2-10.7,4.8-16
			c1.1-3.7,2.1-7.4,3.2-11.1c1.6-5.5,3.4-11,5-16.4c1.5-5.2,2.9-10.4,4.5-15.6c2.1-7,4.3-14,6.4-21c2-6.6,3.9-13.2,6-19.8
			c2.1-6.6,4.2-13.2,6.4-19.7c1-2.9,2.1-5.8,3.2-8.7c0.3,0,0.6,0.1,0.8,0.1c0.2,0.8,0.4,1.6,0.5,2.4c0.3,9.2,0.8,18.4,0.9,27.6
			c0.2,17.2,0.2,34.4,0.4,51.6c0.6,81.7-1.3,163.5,1.1,245.2c0.3,9.4,0.9,18.7,2,28c0.6,5,2.2,10,5.5,14.1c3,3.7,6.8,6,11.6,6.7
			c1.7,0.2,2.5-0.4,2.4-2.2c-0.1-1.6,0-3.2,0-4.7c0.5-16.4,1-32.8,1.6-49.2c0.3-10.6,0.7-21.3,1.1-31.9c0.5-15.6,1.1-31.2,1.7-46.8
			c0.4-11.6,0.7-23.1,1.1-34.7c0.5-16.2,1.1-32.4,1.6-48.7c0.4-11,0.8-22,1.2-33.1c0.5-15.8,1-31.5,1.6-47.2c0.3-9,0.8-17.9,1-26.9
			C799.9,176.5,800.1,167.9,800,159.2z"/>
	</g>
	<g>
		<path class="st0" d="M56.2,476.9H15.8C5.3,476.9,0,472.3,0,463v-93.7h15.8c10.5,0,15.8,4.6,15.8,13.9v68.3h34.6v12.7
			C66.1,472.6,62.8,476.9,56.2,476.9z"/>
		<path class="st0" d="M106.6,457.9l-3,8.1c-2.7,7.2-7.2,10.8-13.3,10.8c-6.2,0-10.6-1.9-13.3-5.7c-2.7-3.8-4-7.2-4-10.2
			c0-3,0.7-6,2-8.9l37.7-82.7h10.2c6.8,0,11.8,3.6,15.1,10.8l33,71.8c1.4,3,2.1,6,2.1,9s-1.3,6.4-3.9,10.2
			c-2.6,3.8-7.1,5.7-13.3,5.7s-10.8-3.6-13.5-10.8l-3-8.1L106.6,457.9L106.6,457.9z M129.7,432.4l-6.8-18.6l-6.8,18.6H129.7z"/>
		<path class="st0" d="M195.4,476.9c-10.5,0-15.8-4.6-15.8-13.9v-93.7h66.3V382c0,8.4-4.1,12.7-12.3,12.7h-22.5v15.5h31.5v12.7
			c0,8.5-4.1,12.7-12.3,12.7h-19.3V463C211.1,472.2,205.9,476.8,195.4,476.9z"/>
		<path class="st0" d="M319.9,431.2l14.3,19.6c3.9,4.6,5.7,8.8,5.6,12.5s-2.1,7.1-5.7,10.1c-3.6,3-7.5,4.4-11.5,4.3
			s-8.1-2.6-12.3-7.5l-24.9-34.1V463c0,9.2-5.3,13.9-15.8,13.9h-15.8V369.4h15.8h35.7c8.8,0,16.1,3.4,22,10.1
			c5.8,6.8,8.8,14,8.8,21.8C336,415.1,330.7,425.1,319.9,431.2z M285.4,391v24.5h9.1c8.9,0,13.4-4.1,13.4-12.3s-4.5-12.3-13.4-12.3
			L285.4,391L285.4,391z"/>
		<path class="st0" d="M458.7,422.1c0,16.6-5.4,30.1-16.2,40.3s-24.4,15.4-40.9,15.4s-30.1-5.1-40.8-15.4
			c-10.7-10.3-16-23.7-16-40.3c0-16.6,5.3-30.1,15.9-40.4c10.6-10.3,24.3-15.5,41.1-15.5c16.8,0,30.4,5.2,41,15.5
			C453.4,392,458.7,405.5,458.7,422.1z M420.9,402.1c-4.8-5.3-11.1-7.9-19.1-7.9s-14.4,2.6-19.2,7.9c-4.8,5.3-7.2,12-7.2,20
			s2.4,14.7,7.2,19.9s11.2,7.8,19.1,7.8c7.9,0,14.3-2.6,19.1-7.9c4.8-5.3,7.2-11.9,7.2-19.9C428.1,414,425.7,407.4,420.9,402.1z"/>
		<path class="st0" d="M518,402.5l22.1-26.6c3.6-4.4,8.5-6.5,14.7-6.5h15.8V463c0,9.2-5.3,13.9-15.8,13.9S539,472.3,539,463v-44
			l-21,24.7l-21-24.5V463c0,9.2-5.3,13.9-15.8,13.9h-15.8V369.4h15.8c6,0,10.9,2.2,14.5,6.5L518,402.5z"/>
		<path class="st0" d="M578.5,476.9V369.4h66.3V382c0,8.4-4.1,12.7-12.3,12.7h-22.5v15.5h31.5v12.7c0,8.5-4.1,12.7-12.3,12.7h-19.3
			v15.9h34.7v12.7c0,8.4-4.1,12.7-12.3,12.7L578.5,476.9L578.5,476.9z"/>
		<path class="st0" d="M700.6,476.9h-47.8V369.4h47.8c17.6,2,29.7,11.7,36.3,29.2c3.3,8.1,4.9,16.3,4.9,24.7s-1.7,16.5-4.9,24.6
			C730.2,465.1,718.1,474.9,700.6,476.9z M712.6,422.2c0-20.2-7.6-30.6-22.5-31.1h-5.7v63.7l5.7,0.2
			C705.1,453.3,712.6,442.4,712.6,422.2z"/>
	</g>
	<g>
		<path class="st0" d="M399.9,515c0,6.7-4.8,10.7-12.8,10.7h-8.4v9.9h-3.3v-31.4h11.7C395.1,504.3,399.9,508.3,399.9,515z
			 M396.6,515c0-5-3.3-7.9-9.6-7.9h-8.3v15.7h8.3C393.3,522.8,396.6,519.9,396.6,515z"/>
		<path class="st0" d="M417.7,511.9v3.1c-0.3,0-0.5,0-0.8,0c-4.9,0-7.9,3.1-7.9,8.7v12h-3.2V512h3v4.6
			C410.4,513.5,413.4,511.9,417.7,511.9z"/>
		<path class="st0" d="M443.7,524.8H424c0.4,4.9,4.1,8.2,9.3,8.2c2.9,0,5.4-1,7.2-3.1l1.8,2.1c-2.1,2.5-5.4,3.8-9.1,3.8
			c-7.3,0-12.4-5-12.4-12c0-7,4.9-12,11.5-12s11.4,4.9,11.4,12C443.8,524.1,443.7,524.4,443.7,524.8z M424,522.4h16.7
			c-0.4-4.6-3.8-7.8-8.4-7.8C427.8,514.6,424.4,517.8,424,522.4z"/>
		<path class="st0" d="M489.1,521.9v13.7H486v-13.3c0-5-2.5-7.5-6.8-7.5c-4.8,0-7.9,3.1-7.9,8.5v12.4h-3.2v-13.3
			c0-5-2.5-7.5-6.8-7.5c-4.8,0-7.9,3.1-7.9,8.5v12.4h-3.2V512h3v4.3c1.7-2.8,4.7-4.5,8.6-4.5c3.9,0,6.9,1.7,8.4,5c1.7-3,5.1-5,9.3-5
			C485.4,511.9,489.1,515.2,489.1,521.9z"/>
		<path class="st0" d="M497.1,504.6c0-1.2,1-2.2,2.3-2.2s2.3,1,2.3,2.2c0,1.3-1,2.3-2.3,2.3C498.1,506.9,497.1,505.9,497.1,504.6z
			 M497.8,512h3.2v23.6h-3.2V512z"/>
		<path class="st0" d="M531.1,512v23.6h-3v-4.3c-1.7,2.9-4.7,4.5-8.5,4.5c-6,0-9.9-3.4-9.9-10.1V512h3.2v13.3c0,5,2.6,7.6,7.1,7.6
			c4.9,0,8-3.2,8-8.6V512H531.1L531.1,512z"/>
		<path class="st0" d="M578.9,521.9v13.7h-3.2v-13.3c0-5-2.5-7.5-6.8-7.5c-4.8,0-7.9,3.1-7.9,8.5v12.4h-3.2v-13.3
			c0-5-2.5-7.5-6.8-7.5c-4.8,0-7.9,3.1-7.9,8.5v12.4H540V512h3v4.3c1.7-2.8,4.7-4.5,8.6-4.5c3.9,0,6.9,1.7,8.4,5c1.7-3,5.1-5,9.3-5
			C575.1,511.9,578.9,515.2,578.9,521.9z"/>
		<path class="st0" d="M609.6,520.9l-6.4,6.5v8.2h-3.3v-31.3h3.3v19l18.4-19h3.8l-13.6,14.2l14.5,17.2h-3.9L609.6,520.9z"/>
		<path class="st0" d="M631.1,502.4h3.2v33.2h-3.2V502.4z"/>
		<path class="st0" d="M642.4,504.6c0-1.2,1-2.2,2.3-2.2s2.3,1,2.3,2.2c0,1.3-1,2.3-2.3,2.3C643.5,506.9,642.4,505.9,642.4,504.6z
			 M643.1,512h3.2v23.6h-3.2V512z"/>
		<path class="st0" d="M676.9,521.9v13.7h-3.2v-13.3c0-5-2.6-7.5-7.1-7.5c-5.1,0-8.2,3.1-8.2,8.5v12.4h-3.2V512h3v4.3
			c1.7-2.9,4.9-4.5,9-4.5C672.9,511.9,676.9,515.2,676.9,521.9z"/>
		<path class="st0" d="M684.8,504.6c0-1.2,1-2.2,2.3-2.2s2.3,1,2.3,2.2c0,1.3-1,2.3-2.3,2.3C685.8,506.9,684.8,505.9,684.8,504.6z
			 M685.5,512h3.2v23.6h-3.2V512z"/>
		<path class="st0" d="M706.3,523.8l-5.5,5.1v6.7h-3.2v-33.2h3.2v22.5l14.1-12.8h3.9l-10.1,9.6l11,13.9h-3.9L706.3,523.8z"/>
		<path class="st0" d="M741.8,521v14.6h-3v-3.7c-1.4,2.4-4.2,3.9-8.1,3.9c-5.3,0-8.6-2.8-8.6-6.8c0-3.6,2.3-6.7,9.1-6.7h7.5v-1.4
			c0-4-2.3-6.2-6.7-6.2c-3,0-5.9,1.1-7.8,2.8l-1.4-2.4c2.4-2,5.9-3.2,9.6-3.2C738.4,511.9,741.8,514.9,741.8,521z M738.6,528.5v-3.8
			h-7.4c-4.6,0-6,1.8-6,4.2c0,2.7,2.2,4.4,6,4.4C734.7,533.3,737.4,531.6,738.6,528.5z"/>
	</g>
</g>
</svg>
